<svg width="60" height="135" viewBox="0 0 60 135" fill="none" xmlns="http://www.w3.org/2000/svg">
<path d="M5.06302 2.532C5.06302 3.93 3.92901 5.063 2.53101 5.063C1.13301 5.063 0 3.93 0 2.532C0 1.133 1.13301 0 2.53101 0C3.92901 0 5.06302 1.133 5.06302 2.532Z" fill="white"/>
<path d="M15.882 2.532C15.882 3.93 14.748 5.063 13.35 5.063C11.952 5.063 10.819 3.93 10.819 2.532C10.819 1.133 11.952 6.60869e-07 13.35 6.60869e-07C14.748 -0.000999339 15.882 1.133 15.882 2.532Z" fill="white"/>
<path d="M26.701 2.532C26.701 3.93 25.566 5.063 24.168 5.063C22.771 5.063 21.637 3.93 21.637 2.532C21.637 1.133 22.771 6.60869e-07 24.168 6.60869e-07C25.566 -0.000999339 26.701 1.133 26.701 2.532Z" fill="white"/>
<path d="M37.519 2.532C37.519 3.93 36.385 5.063 34.987 5.063C33.589 5.063 32.455 3.93 32.455 2.532C32.455 1.133 33.589 6.60869e-07 34.987 6.60869e-07C36.385 -0.000999339 37.519 1.133 37.519 2.532Z" fill="white"/>
<path d="M48.338 2.532C48.338 3.93 47.204 5.063 45.807 5.063C44.409 5.063 43.274 3.93 43.274 2.532C43.274 1.133 44.409 6.60869e-07 45.807 6.60869e-07C47.204 -0.000999339 48.338 1.133 48.338 2.532Z" fill="white"/>
<path d="M59.156 2.532C59.156 3.93 58.023 5.063 56.625 5.063C55.227 5.063 54.093 3.93 54.093 2.532C54.093 1.133 55.227 6.60869e-07 56.625 6.60869e-07C58.023 -0.000999339 59.156 1.133 59.156 2.532Z" fill="white"/>
<path d="M5.06302 21.177C5.06302 22.574 3.92901 23.708 2.53101 23.708C1.13301 23.708 0 22.574 0 21.177C0 19.778 1.13301 18.645 2.53101 18.645C3.92901 18.645 5.06302 19.778 5.06302 21.177Z" fill="white"/>
<path d="M15.882 21.177C15.882 22.574 14.748 23.708 13.35 23.708C11.952 23.708 10.819 22.574 10.819 21.177C10.819 19.778 11.952 18.645 13.35 18.645C14.748 18.645 15.882 19.778 15.882 21.177Z" fill="white"/>
<path d="M26.701 21.177C26.701 22.574 25.566 23.708 24.168 23.708C22.771 23.708 21.637 22.574 21.637 21.177C21.637 19.778 22.771 18.645 24.168 18.645C25.566 18.645 26.701 19.778 26.701 21.177Z" fill="white"/>
<path d="M37.519 21.177C37.519 22.574 36.385 23.708 34.987 23.708C33.589 23.708 32.455 22.574 32.455 21.177C32.455 19.778 33.589 18.645 34.987 18.645C36.385 18.645 37.519 19.778 37.519 21.177Z" fill="white"/>
<path d="M48.338 21.177C48.338 22.574 47.204 23.708 45.807 23.708C44.409 23.708 43.274 22.574 43.274 21.177C43.274 19.778 44.409 18.645 45.807 18.645C47.204 18.645 48.338 19.778 48.338 21.177Z" fill="white"/>
<path d="M59.156 21.177C59.156 22.574 58.023 23.708 56.625 23.708C55.227 23.708 54.093 22.574 54.093 21.177C54.093 19.778 55.227 18.645 56.625 18.645C58.023 18.645 59.156 19.778 59.156 21.177Z" fill="white"/>
<path d="M5.06302 39.8221C5.06302 41.2201 3.92901 42.353 2.53101 42.353C1.13301 42.353 0 41.2201 0 39.8221C0 38.4241 1.13301 37.29 2.53101 37.29C3.92901 37.29 5.06302 38.4231 5.06302 39.8221Z" fill="white"/>
<path d="M15.882 39.8221C15.882 41.2201 14.748 42.353 13.35 42.353C11.952 42.353 10.819 41.2201 10.819 39.8221C10.819 38.4241 11.952 37.29 13.35 37.29C14.748 37.289 15.882 38.4231 15.882 39.8221Z" fill="white"/>
<path d="M26.701 39.8221C26.701 41.2201 25.566 42.353 24.168 42.353C22.771 42.353 21.637 41.2201 21.637 39.8221C21.637 38.4241 22.771 37.29 24.168 37.29C25.566 37.289 26.701 38.4231 26.701 39.8221Z" fill="white"/>
<path d="M37.519 39.8221C37.519 41.2201 36.385 42.353 34.987 42.353C33.589 42.353 32.455 41.2201 32.455 39.8221C32.455 38.4241 33.589 37.29 34.987 37.29C36.385 37.289 37.519 38.4231 37.519 39.8221Z" fill="white"/>
<path d="M48.338 39.8221C48.338 41.2201 47.204 42.353 45.807 42.353C44.409 42.353 43.274 41.2201 43.274 39.8221C43.274 38.4241 44.409 37.29 45.807 37.29C47.204 37.289 48.338 38.4231 48.338 39.8221Z" fill="white"/>
<path d="M59.156 39.8221C59.156 41.2201 58.023 42.353 56.625 42.353C55.227 42.353 54.093 41.2201 54.093 39.8221C54.093 38.4241 55.227 37.29 56.625 37.29C58.023 37.289 59.156 38.4231 59.156 39.8221Z" fill="white"/>
<path d="M5.06302 58.4671C5.06302 59.8651 3.92901 60.9981 2.53101 60.9981C1.13301 60.9981 0 59.8641 0 58.4671C0 57.0681 1.13301 55.9351 2.53101 55.9351C3.92901 55.9351 5.06302 57.0681 5.06302 58.4671Z" fill="white"/>
<path d="M15.882 58.4671C15.882 59.8651 14.748 60.9981 13.35 60.9981C11.952 60.9981 10.819 59.8641 10.819 58.4671C10.819 57.0681 11.952 55.9351 13.35 55.9351C14.748 55.9351 15.882 57.0681 15.882 58.4671Z" fill="white"/>
<path d="M26.701 58.4671C26.701 59.8651 25.566 60.9981 24.168 60.9981C22.771 60.9981 21.637 59.8641 21.637 58.4671C21.637 57.0681 22.771 55.9351 24.168 55.9351C25.566 55.9351 26.701 57.0681 26.701 58.4671Z" fill="white"/>
<path d="M37.519 58.4671C37.519 59.8651 36.385 60.9981 34.987 60.9981C33.589 60.9981 32.455 59.8641 32.455 58.4671C32.455 57.0681 33.589 55.9351 34.987 55.9351C36.385 55.9351 37.519 57.0681 37.519 58.4671Z" fill="white"/>
<path d="M48.338 58.4671C48.338 59.8651 47.204 60.9981 45.807 60.9981C44.409 60.9981 43.274 59.8641 43.274 58.4671C43.274 57.0681 44.409 55.9351 45.807 55.9351C47.204 55.9351 48.338 57.0681 48.338 58.4671Z" fill="white"/>
<path d="M59.156 58.4671C59.156 59.8651 58.023 60.9981 56.625 60.9981C55.227 60.9981 54.093 59.8641 54.093 58.4671C54.093 57.0681 55.227 55.9351 56.625 55.9351C58.023 55.9351 59.156 57.0681 59.156 58.4671Z" fill="white"/>
<path d="M5.06302 76.53C5.06302 77.928 3.92901 79.061 2.53101 79.061C1.13301 79.061 0 77.928 0 76.53C0 75.131 1.13301 73.998 2.53101 73.998C3.92901 73.998 5.06302 75.131 5.06302 76.53Z" fill="white"/>
<path d="M15.882 76.53C15.882 77.928 14.748 79.061 13.35 79.061C11.952 79.061 10.819 77.928 10.819 76.53C10.819 75.131 11.952 73.998 13.35 73.998C14.748 73.997 15.882 75.131 15.882 76.53Z" fill="white"/>
<path d="M26.701 76.53C26.701 77.928 25.566 79.061 24.168 79.061C22.771 79.061 21.637 77.928 21.637 76.53C21.637 75.131 22.771 73.998 24.168 73.998C25.566 73.997 26.701 75.131 26.701 76.53Z" fill="white"/>
<path d="M37.519 76.53C37.519 77.928 36.385 79.061 34.987 79.061C33.589 79.061 32.455 77.928 32.455 76.53C32.455 75.131 33.589 73.998 34.987 73.998C36.385 73.997 37.519 75.131 37.519 76.53Z" fill="white"/>
<path d="M48.338 76.53C48.338 77.928 47.204 79.061 45.807 79.061C44.409 79.061 43.274 77.928 43.274 76.53C43.274 75.131 44.409 73.998 45.807 73.998C47.204 73.997 48.338 75.131 48.338 76.53Z" fill="white"/>
<path d="M59.156 76.53C59.156 77.928 58.023 79.061 56.625 79.061C55.227 79.061 54.093 77.928 54.093 76.53C54.093 75.131 55.227 73.998 56.625 73.998C58.023 73.997 59.156 75.131 59.156 76.53Z" fill="white"/>
<path d="M5.06302 95.1751C5.06302 96.5721 3.92901 97.7061 2.53101 97.7061C1.13301 97.7061 0 96.5721 0 95.1751C0 93.7761 1.13301 92.6431 2.53101 92.6431C3.92901 92.6431 5.06302 93.7761 5.06302 95.1751Z" fill="white"/>
<path d="M15.882 95.1751C15.882 96.5721 14.748 97.7061 13.35 97.7061C11.952 97.7061 10.819 96.5721 10.819 95.1751C10.819 93.7761 11.952 92.6431 13.35 92.6431C14.748 92.6431 15.882 93.7761 15.882 95.1751Z" fill="white"/>
<path d="M26.701 95.1751C26.701 96.5721 25.566 97.7061 24.168 97.7061C22.771 97.7061 21.637 96.5721 21.637 95.1751C21.637 93.7761 22.771 92.6431 24.168 92.6431C25.566 92.6431 26.701 93.7761 26.701 95.1751Z" fill="white"/>
<path d="M37.519 95.1751C37.519 96.5721 36.385 97.7061 34.987 97.7061C33.589 97.7061 32.455 96.5721 32.455 95.1751C32.455 93.7761 33.589 92.6431 34.987 92.6431C36.385 92.6431 37.519 93.7761 37.519 95.1751Z" fill="white"/>
<path d="M48.338 95.1751C48.338 96.5721 47.204 97.7061 45.807 97.7061C44.409 97.7061 43.274 96.5721 43.274 95.1751C43.274 93.7761 44.409 92.6431 45.807 92.6431C47.204 92.6431 48.338 93.7761 48.338 95.1751Z" fill="white"/>
<path d="M59.156 95.1751C59.156 96.5721 58.023 97.7061 56.625 97.7061C55.227 97.7061 54.093 96.5721 54.093 95.1751C54.093 93.7761 55.227 92.6431 56.625 92.6431C58.023 92.6431 59.156 93.7761 59.156 95.1751Z" fill="white"/>
<path d="M5.06302 113.82C5.06302 115.218 3.92901 116.351 2.53101 116.351C1.13301 116.351 0 115.218 0 113.82C0 112.422 1.13301 111.288 2.53101 111.288C3.92901 111.288 5.06302 112.421 5.06302 113.82Z" fill="white"/>
<path d="M15.882 113.82C15.882 115.218 14.748 116.351 13.35 116.351C11.952 116.351 10.819 115.218 10.819 113.82C10.819 112.422 11.952 111.288 13.35 111.288C14.748 111.287 15.882 112.421 15.882 113.82Z" fill="white"/>
<path d="M26.701 113.82C26.701 115.218 25.566 116.351 24.168 116.351C22.771 116.351 21.637 115.218 21.637 113.82C21.637 112.422 22.771 111.288 24.168 111.288C25.566 111.287 26.701 112.421 26.701 113.82Z" fill="white"/>
<path d="M37.519 113.82C37.519 115.218 36.385 116.351 34.987 116.351C33.589 116.351 32.455 115.218 32.455 113.82C32.455 112.422 33.589 111.288 34.987 111.288C36.385 111.287 37.519 112.421 37.519 113.82Z" fill="white"/>
<path d="M48.338 113.82C48.338 115.218 47.204 116.351 45.807 116.351C44.409 116.351 43.274 115.218 43.274 113.82C43.274 112.422 44.409 111.288 45.807 111.288C47.204 111.287 48.338 112.421 48.338 113.82Z" fill="white"/>
<path d="M59.156 113.82C59.156 115.218 58.023 116.351 56.625 116.351C55.227 116.351 54.093 115.218 54.093 113.82C54.093 112.422 55.227 111.288 56.625 111.288C58.023 111.287 59.156 112.421 59.156 113.82Z" fill="white"/>
<path d="M5.06302 132.465C5.06302 133.863 3.92901 134.996 2.53101 134.996C1.13301 134.996 0 133.862 0 132.465C0 131.066 1.13301 129.933 2.53101 129.933C3.92901 129.933 5.06302 131.066 5.06302 132.465Z" fill="white"/>
<path d="M15.882 132.465C15.882 133.863 14.748 134.996 13.35 134.996C11.952 134.996 10.819 133.862 10.819 132.465C10.819 131.066 11.952 129.933 13.35 129.933C14.748 129.933 15.882 131.066 15.882 132.465Z" fill="white"/>
<path d="M26.701 132.465C26.701 133.863 25.566 134.996 24.168 134.996C22.771 134.996 21.637 133.862 21.637 132.465C21.637 131.066 22.771 129.933 24.168 129.933C25.566 129.933 26.701 131.066 26.701 132.465Z" fill="white"/>
<path d="M37.519 132.465C37.519 133.863 36.385 134.996 34.987 134.996C33.589 134.996 32.455 133.862 32.455 132.465C32.455 131.066 33.589 129.933 34.987 129.933C36.385 129.933 37.519 131.066 37.519 132.465Z" fill="white"/>
<path d="M48.338 132.465C48.338 133.863 47.204 134.996 45.807 134.996C44.409 134.996 43.274 133.862 43.274 132.465C43.274 131.066 44.409 129.933 45.807 129.933C47.204 129.933 48.338 131.066 48.338 132.465Z" fill="white"/>
<path d="M59.156 132.465C59.156 133.863 58.023 134.996 56.625 134.996C55.227 134.996 54.093 133.862 54.093 132.465C54.093 131.066 55.227 129.933 56.625 129.933C58.023 129.933 59.156 131.066 59.156 132.465Z" fill="white"/>
</svg>
