<svg width="208" height="99" viewBox="0 0 208 99" fill="none" xmlns="http://www.w3.org/2000/svg">
<path d="M39.5 0H0V5H39.5V0Z" fill="#212F46"/>
<path d="M39.5 9H0V14H39.5V9Z" fill="#212F46"/>
<path d="M39.5 18H0V23H39.5V18Z" fill="#212F46"/>
<path d="M39.5 27H0V32H39.5V27Z" fill="#804CE4"/>
<path d="M39.5 76.5H0V81.5H39.5V76.5Z" fill="#804CE4"/>
<path d="M39.5 94H0V99H39.5V94Z" fill="#804CE4"/>
<path d="M39.5 85H0V90H39.5V85Z" fill="#804CE4"/>
<path d="M39.5 36.188H0V46.813H39.5V36.188Z" fill="#804CE4"/>
<path d="M39.5 51.688H0V74.313H39.5V51.688Z" fill="#804CE4"/>
<path d="M148.328 63H140L147.254 72.672L140 81.538H148.328L155.582 72.672L148.328 63Z" fill="#1C74D9"/>
<path d="M161.224 63H152.896L160.15 72.672L152.896 81.538H161.224L168.479 72.672L161.224 63Z" fill="#1C74D9"/>
<path d="M174.12 63H165.792L173.046 72.672L165.792 81.538H174.12L181.375 72.672L174.12 63Z" fill="#804CE4"/>
<path d="M187.017 63H178.688L185.942 72.672L178.688 81.538H187.017L194.271 72.672L187.017 63Z" fill="#804CE4"/>
<path d="M199.913 63H191.584L198.838 72.672L191.584 81.538H199.913L207.167 72.672L199.913 63Z" fill="#804CE4"/>
</svg>
