<svg width="68" height="19" viewBox="0 0 68 19" fill="none" xmlns="http://www.w3.org/2000/svg">
<path d="M8.328 0H0L7.254 9.672L0 18.538H8.328L15.582 9.672L8.328 0Z" fill="#1C74D9"/>
<path d="M21.224 0H12.896L20.15 9.672L12.896 18.538H21.224L28.479 9.672L21.224 0Z" fill="#1C74D9"/>
<path d="M34.12 0H25.792L33.046 9.672L25.792 18.538H34.12L41.375 9.672L34.12 0Z" fill="#804CE4"/>
<path d="M47.017 0H38.688L45.942 9.672L38.688 18.538H47.017L54.271 9.672L47.017 0Z" fill="#804CE4"/>
<path d="M59.913 0H51.584L58.838 9.672L51.584 18.538H59.913L67.167 9.672L59.913 0Z" fill="#804CE4"/>
</svg>
