<svg width="43" height="51" viewBox="0 0 43 51" fill="none" xmlns="http://www.w3.org/2000/svg">
<path d="M5.5 7.04779C5.5 5.66708 4.38071 4.54779 3 4.54779C1.61929 4.54779 0.5 5.66708 0.5 7.04779H5.5ZM5.5 49.9994L5.5 7.04779H0.5L0.5 49.9994H5.5Z" fill="white"/>
<path d="M5.4947 6.45291C4.85073 5.23157 3.33859 4.76353 2.11726 5.40751C0.895923 6.05148 0.427881 7.56362 1.07186 8.78495L5.4947 6.45291ZM15.7318 25.6373L16.1867 23.179L15.7318 25.6373ZM11.0341 22.3188L8.82268 23.4848L11.0341 22.3188ZM22.4822 20.0218L19.9822 20.0217L22.4822 20.0218ZM15.482 25.591L15.9369 23.1328L15.482 25.591ZM24.9822 20.022L24.9831 4.9162L19.9831 4.9159L19.9822 20.0217L24.9822 20.022ZM1.07186 8.78495L8.82268 23.4848L13.2455 21.1528L5.4947 6.45291L1.07186 8.78495ZM15.027 28.0493L15.2768 28.0955L16.1867 23.179L15.9369 23.1328L15.027 28.0493ZM15.2768 28.0955C16.9365 28.4027 18.6505 28.1909 20.1855 27.4891L18.1064 22.9419C17.5061 23.2163 16.8358 23.2991 16.1867 23.179L15.2768 28.0955ZM8.82268 23.4848C9.2826 24.3571 9.88536 25.1461 10.606 25.8192L14.0191 22.1654C13.7065 21.8734 13.445 21.5311 13.2455 21.1528L8.82268 23.4848ZM19.9822 20.0217C19.9822 21.2783 19.2492 22.4193 18.1064 22.9419L20.1855 27.4891C23.1077 26.1529 24.982 23.2351 24.9822 20.022L19.9822 20.0217ZM10.606 25.8192C11.8368 26.969 13.3708 27.7428 15.027 28.0493L15.9369 23.1328C15.2185 22.9998 14.553 22.6642 14.0191 22.1654L10.606 25.8192Z" fill="white"/>
<path d="M13.1115 48.4844L40.2634 5.91361" stroke="white" stroke-width="5" stroke-linecap="round"/>
<path d="M40.3791 22.9211C41.7598 22.9211 42.8791 21.8019 42.8791 20.4211C42.8791 19.0404 41.7598 17.9211 40.3791 17.9211V22.9211ZM31.1498 22.9211H40.3791V17.9211H31.1498V22.9211Z" fill="white"/>
<path d="M38.2808 31.7324C39.6615 31.7324 40.7808 30.6131 40.7808 29.2324C40.7808 27.8517 39.6615 26.7324 38.2808 26.7324V31.7324ZM26.6047 31.7324H38.2808V26.7324H26.6047V31.7324Z" fill="white"/>
<path d="M36.4589 39.9828C37.8396 39.9828 38.9589 38.8635 38.9589 37.4828C38.9589 36.1021 37.8396 34.9828 36.4589 34.9828V39.9828ZM19.2079 39.9828H36.4589V34.9828H19.2079V39.9828Z" fill="white"/>
</svg>
