<svg width="492" height="156" viewBox="0 0 492 156" fill="none" xmlns="http://www.w3.org/2000/svg">
<g filter="url(#filter0_d_35_1176)">
<path d="M65.8911 77.3835V77.76C65.8533 78.7803 66.0612 79.7412 66.5054 80.6228C66.7889 81.544 67.2802 82.3365 67.9701 83.0101C68.6127 83.7332 69.3687 84.2483 70.2475 84.5455C71.0885 85.0111 72.0051 85.2191 72.9785 85.1894L74.859 84.9219C76.0592 84.5653 77.0986 83.9313 77.9869 83.0101L79.0925 81.5044C79.7351 80.3454 80.0564 79.0972 80.0564 77.75V77.3736C80.0942 76.3533 79.8863 75.3924 79.4422 74.5108C79.1587 73.5895 78.6673 72.7971 77.9775 72.1235C77.3349 71.4004 76.5789 70.8853 75.7 70.5881C74.859 70.1225 73.9424 69.9145 72.9691 69.9442L71.0885 70.2117C69.8884 70.5683 68.8489 71.2022 67.9606 72.1235L66.855 73.6292C66.2124 74.7882 65.8911 76.0363 65.8911 77.3835Z" fill="white"/>
<path d="M127.438 39.8636C127.504 51.5423 127.438 63.2211 127.674 74.8999C127.891 85.9249 129.252 97.6333 135.819 106.677C139.646 111.957 144.494 116.038 150.636 117.97C154.189 119.089 158.517 116.632 159.358 112.779C160.199 108.926 158.205 104.835 154.407 103.636C153.736 103.428 153.084 103.18 152.441 102.903L154.133 103.656C152.753 103.032 151.468 102.249 150.239 101.338C149.181 100.556 151.496 102.447 150.58 101.605C150.277 101.328 149.965 101.051 149.663 100.764C149.105 100.229 148.576 99.654 148.075 99.0696C147.839 98.7923 147.622 98.5149 147.395 98.2277C146.545 97.1777 148.349 99.6144 147.641 98.5644C147.159 97.8611 146.696 97.1479 146.261 96.4149C145.458 95.038 144.778 93.6017 144.173 92.1159L144.891 93.889C143.521 90.3824 142.727 86.6876 142.245 82.9532L142.5 84.9244C141.612 77.6536 141.81 70.264 141.763 62.9437C141.716 55.2371 141.669 47.5404 141.621 39.8338C141.602 35.9508 138.38 32.2263 134.534 32.4046C130.688 32.5829 127.419 35.6735 127.447 39.8338L127.438 39.8636Z" fill="white"/>
<path d="M219.695 117.531C236.459 116.917 253.251 117.026 270.005 117.858C273.709 118.046 277.262 114.312 277.092 110.429C276.913 106.248 273.974 103.197 270.005 102.999C253.241 102.167 236.459 102.058 219.695 102.673C215.991 102.811 212.429 105.991 212.608 110.102C212.788 114.213 215.727 117.68 219.695 117.531Z" fill="white"/>
<path d="M219.695 83.2502C233.954 83.1809 248.223 83.1115 262.482 83.0422C266.187 83.0223 269.74 79.6346 269.57 75.6129C269.4 71.5912 266.451 68.1639 262.482 68.1837C248.223 68.253 233.954 68.3224 219.695 68.3917C215.99 68.4115 212.437 71.7993 212.607 75.821C212.778 79.8426 215.726 83.27 219.695 83.2502Z" fill="white"/>
<path d="M304.07 44.9566C321.854 44.6693 339.657 45.0359 357.451 45.125C355.41 41.4005 353.368 37.676 351.327 33.9415C351.157 34.1793 350.978 34.4269 350.808 34.6647C350.723 34.7835 349.834 35.992 350.571 34.9915C351.242 34.0901 350.6 34.9519 350.467 35.1302C350.25 35.4274 350.023 35.7246 349.797 36.0217C349.041 37.0222 348.266 38.0226 347.491 39.0132C345.837 41.1033 344.146 43.1637 342.407 45.1746C338.977 49.1467 335.386 52.9604 331.644 56.6057C328.922 59.2604 328.894 64.4608 331.644 67.1155C334.554 69.9188 338.769 69.9486 341.67 67.1155C349.721 59.2703 356.95 50.6425 363.574 41.45C365.048 39.3996 364.736 36.0415 363.574 33.9514C362.308 31.683 359.955 30.2863 357.451 30.2764C339.667 30.1873 321.854 29.8208 304.07 30.108C300.366 30.1675 296.813 33.4859 296.983 37.5373C297.153 41.5887 300.101 45.026 304.07 44.9665V44.9566Z" fill="white"/>
<path d="M397.671 45.1441C415.455 44.8568 433.259 45.2234 451.052 45.3125C449.011 41.588 446.97 37.8635 444.929 34.129C444.759 34.3668 444.579 34.6144 444.409 34.8522C444.324 34.971 443.436 36.1795 444.173 35.179C444.844 34.2776 444.201 35.1394 444.069 35.3177C443.852 35.6149 443.625 35.9121 443.398 36.2092C442.642 37.2097 441.867 38.2101 441.092 39.2007C439.439 41.2908 437.747 43.3512 436.008 45.3621C432.578 49.3342 428.987 53.1479 425.245 56.7932C422.524 59.4479 422.495 64.6483 425.245 67.303C428.156 70.1063 432.37 70.1361 435.271 67.303C443.322 59.4578 450.551 50.83 457.175 41.6375C458.65 39.5871 458.338 36.229 457.175 34.1389C455.909 31.8705 453.556 30.4738 451.052 30.4639C433.268 30.3748 415.455 30.0083 397.671 30.2955C393.967 30.355 390.414 33.6734 390.584 37.7248C390.754 41.7762 393.702 45.2135 397.671 45.154V45.1441Z" fill="white"/>
<path d="M320.234 77.9775C315.386 82.4152 310.699 87.0412 306.192 91.8553C303.99 94.203 301.826 96.6001 299.71 99.0369C296.601 102.613 291.942 106.714 293.359 112.083C293.889 114.093 295.24 115.837 296.96 116.857C298.462 117.749 300.059 117.907 301.751 118.016C303.546 118.125 305.342 118.214 307.137 118.274C310.501 118.393 313.856 118.442 317.22 118.442C324.033 118.442 330.837 118.264 337.64 118.125C345.304 117.977 352.977 117.897 360.641 118.204C364.345 118.353 367.898 114.678 367.728 110.775C367.548 106.625 364.609 103.504 360.641 103.346C350.624 102.95 340.607 103.207 330.6 103.415C325.592 103.514 320.584 103.603 315.575 103.584C310.681 103.564 305.653 103.653 300.777 103.088L302.658 103.356L302.403 103.286L304.094 104.039L303.886 103.91L306.428 106.575L306.296 106.367L307.26 110.121V109.824C306.929 111.072 306.608 112.32 306.286 113.578C306.74 112.558 305.323 114.638 305.927 114.024C306.183 113.757 306.409 113.44 306.646 113.162C307.127 112.588 307.609 112.013 308.101 111.439C309.074 110.3 310.057 109.161 311.049 108.041C313.09 105.733 315.16 103.465 317.276 101.236C321.453 96.8279 325.781 92.5883 330.241 88.5072C333.038 85.9416 332.934 80.5926 330.241 77.9973C327.255 75.1247 323.201 75.2634 320.215 77.9973L320.234 77.9775Z" fill="white"/>
<path d="M410.652 77.9775C405.804 82.4152 401.117 87.0412 396.61 91.8553C394.408 94.203 392.244 96.6001 390.128 99.0369C387.019 102.613 382.36 106.714 383.777 112.083C384.307 114.093 385.658 115.837 387.378 116.857C388.88 117.749 390.477 117.907 392.169 118.016C393.964 118.125 395.76 118.214 397.555 118.274C400.919 118.393 404.274 118.442 407.638 118.442C414.451 118.442 421.255 118.264 428.058 118.125C435.722 117.977 443.395 117.897 451.059 118.204C454.763 118.353 458.316 114.678 458.146 110.775C457.966 106.625 455.027 103.504 451.059 103.346C441.042 102.95 431.025 103.207 421.018 103.415C416.01 103.514 411.002 103.603 405.993 103.584C401.099 103.564 396.071 103.653 391.195 103.088L393.076 103.356L392.821 103.286L394.512 104.039L394.304 103.91L396.846 106.575L396.714 106.367L397.678 110.121V109.824C397.347 111.072 397.026 112.32 396.704 113.578C397.158 112.558 395.741 114.638 396.345 114.024C396.601 113.757 396.827 113.44 397.064 113.162C397.545 112.588 398.027 112.013 398.519 111.439C399.492 110.3 400.475 109.161 401.467 108.041C403.508 105.733 405.578 103.465 407.694 101.236C411.871 96.8279 416.199 92.5883 420.659 88.5072C423.456 85.9416 423.352 80.5926 420.659 77.9973C417.673 75.1247 413.619 75.2634 410.633 77.9973L410.652 77.9775Z" fill="white"/>
<path d="M219.694 49.1042C236.713 50.5108 253.769 48.2424 270.798 49.3122C274.502 49.55 278.045 45.7264 277.885 41.883C277.705 37.6632 274.766 34.7014 270.798 34.4537C253.769 33.3839 236.713 35.6523 219.694 34.2457C215.99 33.9386 212.446 37.8811 212.607 41.6749C212.786 45.9641 215.725 48.7773 219.694 49.1042Z" fill="white"/>
<path d="M198.891 41.6214C198.825 53.3002 198.891 64.9789 198.654 76.6577C198.437 87.6827 197.076 99.3911 190.509 108.435C186.682 113.715 181.834 117.796 175.692 119.727C172.139 120.847 167.811 118.39 166.97 114.537C166.129 110.684 168.123 106.593 171.922 105.394C172.592 105.186 173.244 104.938 173.887 104.661L172.196 105.414C173.575 104.79 174.86 104.007 176.089 103.096C177.147 102.313 174.832 104.205 175.749 103.363C176.051 103.086 176.363 102.809 176.665 102.521C177.223 101.986 177.752 101.412 178.253 100.827C178.489 100.55 178.706 100.273 178.933 99.9855C179.784 98.9355 177.979 101.372 178.687 100.322C179.169 99.6189 179.632 98.9057 180.067 98.1727C180.87 96.7958 181.551 95.3596 182.155 93.8737L181.437 95.6468C182.807 92.1402 183.601 88.4454 184.083 84.711L183.828 86.6822C184.716 79.4114 184.518 72.0218 184.565 64.7015C184.612 56.9949 184.66 49.2982 184.707 41.5916C184.726 37.7086 187.948 33.9841 191.794 34.1624C195.64 34.3407 198.91 37.4313 198.881 41.5916L198.891 41.6214Z" fill="white"/>
<path d="M97.4418 37.623C97.886 56.7313 96.5724 75.8198 96.4779 94.9182C96.4496 100.307 96.5346 105.686 96.7614 111.065C96.9315 114.938 99.8987 118.682 103.849 118.494C107.544 118.316 111.116 115.225 110.936 111.065C110.104 91.9663 111.333 72.8679 111.635 53.7794C111.72 48.3906 111.73 43.0019 111.607 37.623C111.513 33.7399 108.413 30.0154 104.52 30.1937C100.626 30.372 97.3379 33.4626 97.4324 37.623H97.4418Z" fill="white"/>
<path d="M79.1014 81.4145C81.341 77.898 83.6561 74.431 86.0563 71.0334C86.6517 70.1815 87.2564 69.3395 87.8707 68.4876C88.2203 68.0023 88.5699 67.5268 88.9196 67.0414C89.7417 65.9122 87.9651 68.3192 88.8723 67.1107C90.1197 65.4466 91.367 63.7923 92.6427 62.148C97.7455 55.6004 103.151 49.3103 108.82 43.2877C111.429 40.524 111.655 35.5018 108.82 32.7778C105.986 30.0537 101.582 29.8259 98.7944 32.7778C86.9351 45.3679 76.2382 59.1862 66.8642 73.906C64.8042 77.1452 66.1649 82.2763 69.4061 84.0692C72.9686 86.0404 76.8997 84.8617 79.1014 81.4046V81.4145Z" fill="white"/>
<path d="M33.0003 95.6449C33.0665 101.271 33.1326 106.908 33.1988 112.535C33.2177 114.456 33.9737 116.428 35.2777 117.785C36.5062 119.072 38.5285 120.043 40.2861 119.964C42.0438 119.885 44.0188 119.251 45.2945 117.785C46.5703 116.319 47.3924 114.536 47.3735 112.535C47.3074 106.908 47.2412 101.271 47.1751 95.6449C47.1562 93.7232 46.4002 91.7519 45.0961 90.3948C43.8676 89.107 41.8454 88.1362 40.0877 88.2155C38.33 88.2947 36.355 88.9287 35.0793 90.3948C33.8035 91.8609 32.9814 93.6439 33.0003 95.6449Z" fill="white"/>
<path d="M34.9838 45.6509C46.1627 58.0329 57.3321 70.4249 67.6322 83.6291C68.7189 85.0159 71.0057 85.8084 72.6405 85.8084C74.3792 85.8084 76.4581 84.9961 77.6488 83.6291C78.8394 82.2621 79.8127 80.3503 79.7277 78.3791C79.6426 76.2989 78.9056 74.7339 77.6488 73.1291C67.3487 59.9348 56.1698 47.5329 45.0004 35.1508C42.449 32.3178 37.5163 32.2485 34.9744 35.1508C32.4324 38.0532 32.2529 42.6396 34.9744 45.6608L34.9838 45.6509Z" fill="white"/>
</g>
<defs>
<filter id="filter0_d_35_1176" x="0" y="0" width="491.168" height="155.999" filterUnits="userSpaceOnUse" color-interpolation-filters="sRGB">
<feFlood flood-opacity="0" result="BackgroundImageFix"/>
<feColorMatrix in="SourceAlpha" type="matrix" values="0 0 0 0 0 0 0 0 0 0 0 0 0 0 0 0 0 0 127 0" result="hardAlpha"/>
<feOffset dy="3"/>
<feGaussianBlur stdDeviation="16.5"/>
<feComposite in2="hardAlpha" operator="out"/>
<feColorMatrix type="matrix" values="0 0 0 0 0.501961 0 0 0 0 0.298039 0 0 0 0 0.894118 0 0 0 0.5 0"/>
<feBlend mode="normal" in2="BackgroundImageFix" result="effect1_dropShadow_35_1176"/>
<feBlend mode="normal" in="SourceGraphic" in2="effect1_dropShadow_35_1176" result="shape"/>
</filter>
</defs>
</svg>
